<svg width="64" height="23" viewBox="0 0 64 23" fill="none" xmlns="http://www.w3.org/2000/svg">
<path d="M52.4 7.856V7.008H53.088V4.32H54.76C55.336 4.32 55.8 4.48267 56.152 4.808C56.5093 5.13333 56.688 5.56 56.688 6.088C56.688 6.616 56.5093 7.04267 56.152 7.368C55.8 7.69333 55.336 7.856 54.76 7.856H53.968V8.456H55.456V8.904H53.968V10H53.088V8.904H52.4V8.456H53.088V7.856H52.4ZM53.968 7.008H54.744C55.0693 7.008 55.32 6.928 55.496 6.768C55.6773 6.60267 55.768 6.376 55.768 6.088C55.768 5.8 55.6773 5.576 55.496 5.416C55.32 5.256 55.0693 5.176 54.744 5.176H53.968V7.008Z" fill="#7E838C"/>
<path d="M15.185 17.15C14.215 17.15 13.365 16.845 12.635 16.235C11.905 15.625 11.53 14.885 11.51 14.015H13.205C13.315 14.465 13.55 14.83 13.91 15.11C14.28 15.39 14.705 15.53 15.185 15.53C15.775 15.53 16.255 15.34 16.625 14.96C16.995 14.57 17.18 14.1 17.18 13.55C17.18 12.98 16.995 12.51 16.625 12.14C16.265 11.76 15.8 11.57 15.23 11.57C14.37 11.57 13.75 11.935 13.37 12.665L11.885 12.2L13.025 6.35H18.095V7.955H14.315L13.82 10.505C14.26 10.195 14.815 10.04 15.485 10.04C16.485 10.04 17.295 10.385 17.915 11.075C18.535 11.765 18.845 12.645 18.845 13.715C18.845 14.715 18.5 15.54 17.81 16.19C17.13 16.83 16.255 17.15 15.185 17.15ZM27.3174 17.15C26.2574 17.15 25.3824 16.835 24.6924 16.205C24.0024 15.565 23.6574 14.755 23.6574 13.775C23.6574 12.535 24.1624 11.64 25.1724 11.09C24.5124 10.58 24.1824 9.875 24.1824 8.975C24.1824 8.165 24.4724 7.495 25.0524 6.965C25.6424 6.435 26.3974 6.17 27.3174 6.17C28.2474 6.17 29.0024 6.435 29.5824 6.965C30.1724 7.485 30.4674 8.155 30.4674 8.975C30.4674 9.875 30.1374 10.58 29.4774 11.09C30.4874 11.64 30.9924 12.535 30.9924 13.775C30.9924 14.765 30.6474 15.575 29.9574 16.205C29.2774 16.835 28.3974 17.15 27.3174 17.15ZM27.3174 15.605C27.9274 15.605 28.4124 15.425 28.7724 15.065C29.1324 14.705 29.3124 14.265 29.3124 13.745C29.3124 13.215 29.1324 12.775 28.7724 12.425C28.4124 12.065 27.9324 11.885 27.3324 11.885C26.7224 11.885 26.2374 12.065 25.8774 12.425C25.5174 12.775 25.3374 13.215 25.3374 13.745C25.3374 14.265 25.5174 14.705 25.8774 15.065C26.2474 15.425 26.7274 15.605 27.3174 15.605ZM27.3174 10.49C27.7774 10.49 28.1474 10.355 28.4274 10.085C28.7174 9.805 28.8624 9.47 28.8624 9.08C28.8624 8.67 28.7224 8.335 28.4424 8.075C28.1624 7.805 27.7874 7.67 27.3174 7.67C26.8674 7.67 26.4974 7.805 26.2074 8.075C25.9274 8.345 25.7874 8.68 25.7874 9.08C25.7874 9.47 25.9324 9.805 26.2224 10.085C26.5124 10.355 26.8774 10.49 27.3174 10.49ZM32.7489 17L35.7789 13.19H35.6139C34.7439 13.19 33.9689 12.865 33.2889 12.215C32.6189 11.555 32.2839 10.74 32.2839 9.77C32.2839 8.75 32.6239 7.895 33.3039 7.205C33.9939 6.515 34.8739 6.17 35.9439 6.17C37.0139 6.17 37.8889 6.515 38.5689 7.205C39.2589 7.895 39.6039 8.745 39.6039 9.755C39.6039 10.265 39.5039 10.72 39.3039 11.12C39.1139 11.52 38.8089 11.99 38.3889 12.53L34.8189 17H32.7489ZM34.5189 11.195C34.8989 11.575 35.3739 11.765 35.9439 11.765C36.5139 11.765 36.9839 11.575 37.3539 11.195C37.7339 10.805 37.9239 10.325 37.9239 9.755C37.9239 9.205 37.7339 8.735 37.3539 8.345C36.9739 7.955 36.5039 7.76 35.9439 7.76C35.3839 7.76 34.9139 7.955 34.5339 8.345C34.1539 8.735 33.9639 9.205 33.9639 9.755C33.9639 10.325 34.1489 10.805 34.5189 11.195ZM47.6057 16.01C46.8857 16.77 45.9607 17.15 44.8307 17.15C43.7007 17.15 42.7757 16.77 42.0557 16.01C41.3357 15.24 40.9757 14.255 40.9757 13.055V10.265C40.9757 9.065 41.3357 8.085 42.0557 7.325C42.7757 6.555 43.7007 6.17 44.8307 6.17C45.9607 6.17 46.8857 6.555 47.6057 7.325C48.3357 8.085 48.7007 9.065 48.7007 10.265V13.055C48.7007 14.255 48.3357 15.24 47.6057 16.01ZM44.8307 15.53C45.5007 15.53 46.0357 15.31 46.4357 14.87C46.8457 14.43 47.0507 13.825 47.0507 13.055V10.265C47.0507 9.495 46.8457 8.89 46.4357 8.45C46.0357 8.01 45.5007 7.79 44.8307 7.79C44.1707 7.79 43.6357 8.01 43.2257 8.45C42.8257 8.89 42.6257 9.495 42.6257 10.265V13.055C42.6257 13.825 42.8257 14.43 43.2257 14.87C43.6357 15.31 44.1707 15.53 44.8307 15.53Z" fill="#7E838C"/>
<line x1="1.48681" y1="16.305" x2="63.305" y2="5.41553" stroke="#F31B4F" stroke-width="1.2" stroke-linecap="round"/>
</svg>
