<svg width="223" height="27" viewBox="0 0 223 27" fill="none" xmlns="http://www.w3.org/2000/svg">
<g filter="url(#filter0_d_1_1124)">
<mask id="path-1-outside-1_1_1124" maskUnits="userSpaceOnUse" x="4" y="-0.000244141" width="215" height="19" fill="black">
<rect fill="white" x="4" y="-0.000244141" width="215" height="19"/>
<path d="M11.2964 7.71832H22.0952V4.56263H5C5 3.40894 5.46264 2.5267 6.38793 1.91592C7.33578 1.30515 8.5883 0.999756 10.1455 0.999756H22.7045C23.3816 0.999756 24.0248 1.09024 24.6341 1.27121C25.2434 1.45219 25.7738 1.70102 26.2251 2.01772C26.6991 2.3118 27.0714 2.67374 27.3422 3.10355C27.6131 3.53336 27.7485 4.00841 27.7485 4.5287V14.4708C27.7485 15.0137 27.6131 15.5001 27.3422 15.9299C27.0714 16.3597 26.6991 16.733 26.2251 17.0497C25.7738 17.3437 25.2434 17.5813 24.6341 17.7622C24.0248 17.9206 23.3703 17.9998 22.6707 17.9998H10.1455C9.42331 17.9998 8.74627 17.9319 8.11437 17.7962C7.50504 17.6604 6.96341 17.4568 6.48948 17.1854C6.01556 16.8913 5.64319 16.5294 5.37237 16.0996C5.12412 15.6471 5 15.1155 5 14.5047H22.0952V11.3151H11.2964V7.71832Z"/>
<path d="M47.3291 17.9998C46.6295 17.9998 46.0428 17.9432 45.5688 17.8301C45.1175 17.717 44.7113 17.5813 44.3502 17.4229C44.0116 17.2646 43.707 17.0836 43.4362 16.88C43.1653 16.6764 42.8945 16.4841 42.6237 16.3031L35.4471 10.1614V14.7423C35.4471 15.353 35.3004 15.8733 35.007 16.3031C34.7362 16.7103 34.3639 17.0383 33.8899 17.2872C33.416 17.536 32.8631 17.717 32.2312 17.8301C31.6219 17.9432 30.9787 17.9998 30.3016 17.9998H29.7939V0.999756H35.4471V8.49876L42.8268 0.999756H49.0894L41.3712 8.97381L51.6622 17.9998H47.3291Z"/>
<path d="M76.4436 14.5726C76.4436 15.1834 76.3082 15.7037 76.0374 16.1335C75.7666 16.5407 75.3942 16.8913 74.9203 17.1854C74.4689 17.4568 73.9273 17.6604 73.2954 17.7962C72.6635 17.9319 71.9864 17.9998 71.2643 17.9998H58.7391C58.0395 17.9998 57.385 17.9206 56.7757 17.7622C56.1663 17.5813 55.6247 17.3437 55.1508 17.0497C54.6994 16.733 54.3383 16.371 54.0675 15.9638C53.8193 15.534 53.6951 15.0477 53.6951 14.5047V4.46083C53.6951 3.96316 53.8193 3.49942 54.0675 3.06962C54.3383 2.61719 54.6994 2.24394 55.1508 1.94986C55.6247 1.63316 56.1663 1.39563 56.7757 1.23728C57.385 1.07893 58.0395 0.999756 58.7391 0.999756H71.2643C72.7989 0.999756 74.0401 1.30515 74.988 1.91592C75.9584 2.50408 76.4436 3.37501 76.4436 4.5287V14.5726ZM70.7903 4.56263H59.3484V14.5047H70.7903V4.56263Z"/>
<path d="M95.5842 17.9998V11.3151H84.1422V17.9998H78.489V4.46083C78.489 3.96316 78.6244 3.51073 78.8952 3.10355C79.166 2.67374 79.5271 2.3118 79.9785 2.01772C80.4524 1.70102 80.994 1.45219 81.6034 1.27121C82.2127 1.09024 82.8672 0.999756 83.5668 0.999756H84.1422V7.78618H95.618V0.999756H101.237V17.9998H95.5842Z"/>
<path d="M133.768 14.5726C133.768 15.2965 133.576 15.8847 133.192 16.3371C132.831 16.7895 132.369 17.1401 131.804 17.389C131.263 17.6378 130.653 17.8075 129.976 17.898C129.322 17.9658 128.701 17.9998 128.115 17.9998H116.266V17.6604C116.266 16.8687 116.469 16.2579 116.876 15.8281C117.304 15.3757 117.79 15.059 118.331 14.878C118.896 14.6744 119.471 14.5613 120.058 14.5387C120.667 14.5161 121.141 14.5047 121.48 14.5047H128.115V11.3151H116.199C115.86 11.3151 115.398 11.3377 114.811 11.383C114.224 11.4056 113.637 11.3604 113.05 11.2473C112.486 11.1115 112.001 10.8514 111.595 10.4668C111.189 10.0596 110.985 9.43755 110.985 8.60055V1.03369H111.459C111.82 1.03369 112.294 1.05631 112.881 1.10155C113.491 1.1468 114.066 1.2599 114.608 1.44087C115.172 1.62185 115.657 1.91592 116.063 2.32311C116.469 2.7303 116.673 3.31845 116.673 4.08758V7.71832H128.115V0.999756H133.768V14.5726Z"/>
<path d="M158.561 7.71832C158.561 8.91725 157.985 9.82211 156.834 10.4329C155.683 11.021 154.138 11.3151 152.197 11.3151H143.734C143.734 10.9532 143.79 10.5573 143.903 10.1275C144.038 9.67507 144.23 9.2792 144.478 8.93988C144.749 8.60055 145.099 8.31779 145.528 8.09157C145.957 7.84274 146.464 7.71832 147.051 7.71832H152.874V4.56263H141.466V14.0297C141.466 15.6132 140.98 16.699 140.01 17.2872C139.514 17.5813 138.949 17.7735 138.317 17.864C137.686 17.9545 137.042 17.9998 136.388 17.9998H135.812V0.999756H153.382C154.916 0.999756 156.157 1.30515 157.105 1.91592C158.076 2.5267 158.561 3.40894 158.561 4.56263V7.71832Z"/>
<path d="M160.606 4.56263C160.606 3.40894 161.08 2.5267 162.028 1.91592C162.998 1.30515 164.251 0.999756 165.786 0.999756H188.026C189.561 0.999756 190.802 1.30515 191.75 1.91592C192.72 2.5267 193.206 3.40894 193.206 4.56263V10.3311C193.206 11.53 192.63 12.4349 191.479 13.0457C190.328 13.6338 188.782 13.9279 186.841 13.9279H179.733V14.0297C179.733 15.6132 179.247 16.699 178.277 17.2872C177.78 17.5813 177.216 17.7735 176.584 17.864C175.952 17.9545 175.309 17.9998 174.655 17.9998H174.079V13.9279H166.97C165.03 13.9279 163.484 13.6338 162.333 13.0457C161.182 12.4349 160.606 11.53 160.606 10.3311V4.56263ZM179.733 10.3311H187.518V4.56263H179.733V10.3311ZM166.293 10.3311H174.079V4.56263H166.293V10.3311Z"/>
<path d="M218 14.5726C218 15.1834 217.865 15.7037 217.594 16.1335C217.323 16.5407 216.951 16.8913 216.477 17.1854C216.025 17.4568 215.484 17.6604 214.852 17.7962C214.22 17.9319 213.543 17.9998 212.821 17.9998H200.295C199.596 17.9998 198.941 17.9206 198.332 17.7622C197.723 17.5813 197.181 17.3437 196.707 17.0497C196.256 16.733 195.895 16.371 195.624 15.9638C195.376 15.534 195.252 15.0477 195.252 14.5047V4.46083C195.252 3.96316 195.376 3.49942 195.624 3.06962C195.895 2.61719 196.256 2.24394 196.707 1.94986C197.181 1.63316 197.723 1.39563 198.332 1.23728C198.941 1.07893 199.596 0.999756 200.295 0.999756H212.821C214.355 0.999756 215.597 1.30515 216.544 1.91592C217.515 2.50408 218 3.37501 218 4.5287V14.5726ZM212.347 4.56263H200.905V14.5047H212.347V4.56263Z"/>
</mask>
<path d="M11.2964 7.71832H22.0952V4.56263H5C5 3.40894 5.46264 2.5267 6.38793 1.91592C7.33578 1.30515 8.5883 0.999756 10.1455 0.999756H22.7045C23.3816 0.999756 24.0248 1.09024 24.6341 1.27121C25.2434 1.45219 25.7738 1.70102 26.2251 2.01772C26.6991 2.3118 27.0714 2.67374 27.3422 3.10355C27.6131 3.53336 27.7485 4.00841 27.7485 4.5287V14.4708C27.7485 15.0137 27.6131 15.5001 27.3422 15.9299C27.0714 16.3597 26.6991 16.733 26.2251 17.0497C25.7738 17.3437 25.2434 17.5813 24.6341 17.7622C24.0248 17.9206 23.3703 17.9998 22.6707 17.9998H10.1455C9.42331 17.9998 8.74627 17.9319 8.11437 17.7962C7.50504 17.6604 6.96341 17.4568 6.48948 17.1854C6.01556 16.8913 5.64319 16.5294 5.37237 16.0996C5.12412 15.6471 5 15.1155 5 14.5047H22.0952V11.3151H11.2964V7.71832Z" fill="#2B2E34"/>
<path d="M47.3291 17.9998C46.6295 17.9998 46.0428 17.9432 45.5688 17.8301C45.1175 17.717 44.7113 17.5813 44.3502 17.4229C44.0116 17.2646 43.707 17.0836 43.4362 16.88C43.1653 16.6764 42.8945 16.4841 42.6237 16.3031L35.4471 10.1614V14.7423C35.4471 15.353 35.3004 15.8733 35.007 16.3031C34.7362 16.7103 34.3639 17.0383 33.8899 17.2872C33.416 17.536 32.8631 17.717 32.2312 17.8301C31.6219 17.9432 30.9787 17.9998 30.3016 17.9998H29.7939V0.999756H35.4471V8.49876L42.8268 0.999756H49.0894L41.3712 8.97381L51.6622 17.9998H47.3291Z" fill="#2B2E34"/>
<path d="M76.4436 14.5726C76.4436 15.1834 76.3082 15.7037 76.0374 16.1335C75.7666 16.5407 75.3942 16.8913 74.9203 17.1854C74.4689 17.4568 73.9273 17.6604 73.2954 17.7962C72.6635 17.9319 71.9864 17.9998 71.2643 17.9998H58.7391C58.0395 17.9998 57.385 17.9206 56.7757 17.7622C56.1663 17.5813 55.6247 17.3437 55.1508 17.0497C54.6994 16.733 54.3383 16.371 54.0675 15.9638C53.8193 15.534 53.6951 15.0477 53.6951 14.5047V4.46083C53.6951 3.96316 53.8193 3.49942 54.0675 3.06962C54.3383 2.61719 54.6994 2.24394 55.1508 1.94986C55.6247 1.63316 56.1663 1.39563 56.7757 1.23728C57.385 1.07893 58.0395 0.999756 58.7391 0.999756H71.2643C72.7989 0.999756 74.0401 1.30515 74.988 1.91592C75.9584 2.50408 76.4436 3.37501 76.4436 4.5287V14.5726ZM70.7903 4.56263H59.3484V14.5047H70.7903V4.56263Z" fill="#2B2E34"/>
<path d="M95.5842 17.9998V11.3151H84.1422V17.9998H78.489V4.46083C78.489 3.96316 78.6244 3.51073 78.8952 3.10355C79.166 2.67374 79.5271 2.3118 79.9785 2.01772C80.4524 1.70102 80.994 1.45219 81.6034 1.27121C82.2127 1.09024 82.8672 0.999756 83.5668 0.999756H84.1422V7.78618H95.618V0.999756H101.237V17.9998H95.5842Z" fill="#2B2E34"/>
<path d="M133.768 14.5726C133.768 15.2965 133.576 15.8847 133.192 16.3371C132.831 16.7895 132.369 17.1401 131.804 17.389C131.263 17.6378 130.653 17.8075 129.976 17.898C129.322 17.9658 128.701 17.9998 128.115 17.9998H116.266V17.6604C116.266 16.8687 116.469 16.2579 116.876 15.8281C117.304 15.3757 117.79 15.059 118.331 14.878C118.896 14.6744 119.471 14.5613 120.058 14.5387C120.667 14.5161 121.141 14.5047 121.48 14.5047H128.115V11.3151H116.199C115.86 11.3151 115.398 11.3377 114.811 11.383C114.224 11.4056 113.637 11.3604 113.05 11.2473C112.486 11.1115 112.001 10.8514 111.595 10.4668C111.189 10.0596 110.985 9.43755 110.985 8.60055V1.03369H111.459C111.82 1.03369 112.294 1.05631 112.881 1.10155C113.491 1.1468 114.066 1.2599 114.608 1.44087C115.172 1.62185 115.657 1.91592 116.063 2.32311C116.469 2.7303 116.673 3.31845 116.673 4.08758V7.71832H128.115V0.999756H133.768V14.5726Z" fill="#2B2E34"/>
<path d="M158.561 7.71832C158.561 8.91725 157.985 9.82211 156.834 10.4329C155.683 11.021 154.138 11.3151 152.197 11.3151H143.734C143.734 10.9532 143.79 10.5573 143.903 10.1275C144.038 9.67507 144.23 9.2792 144.478 8.93988C144.749 8.60055 145.099 8.31779 145.528 8.09157C145.957 7.84274 146.464 7.71832 147.051 7.71832H152.874V4.56263H141.466V14.0297C141.466 15.6132 140.98 16.699 140.01 17.2872C139.514 17.5813 138.949 17.7735 138.317 17.864C137.686 17.9545 137.042 17.9998 136.388 17.9998H135.812V0.999756H153.382C154.916 0.999756 156.157 1.30515 157.105 1.91592C158.076 2.5267 158.561 3.40894 158.561 4.56263V7.71832Z" fill="#2B2E34"/>
<path d="M160.606 4.56263C160.606 3.40894 161.08 2.5267 162.028 1.91592C162.998 1.30515 164.251 0.999756 165.786 0.999756H188.026C189.561 0.999756 190.802 1.30515 191.75 1.91592C192.72 2.5267 193.206 3.40894 193.206 4.56263V10.3311C193.206 11.53 192.63 12.4349 191.479 13.0457C190.328 13.6338 188.782 13.9279 186.841 13.9279H179.733V14.0297C179.733 15.6132 179.247 16.699 178.277 17.2872C177.78 17.5813 177.216 17.7735 176.584 17.864C175.952 17.9545 175.309 17.9998 174.655 17.9998H174.079V13.9279H166.97C165.03 13.9279 163.484 13.6338 162.333 13.0457C161.182 12.4349 160.606 11.53 160.606 10.3311V4.56263ZM179.733 10.3311H187.518V4.56263H179.733V10.3311ZM166.293 10.3311H174.079V4.56263H166.293V10.3311Z" fill="#2B2E34"/>
<path d="M218 14.5726C218 15.1834 217.865 15.7037 217.594 16.1335C217.323 16.5407 216.951 16.8913 216.477 17.1854C216.025 17.4568 215.484 17.6604 214.852 17.7962C214.22 17.9319 213.543 17.9998 212.821 17.9998H200.295C199.596 17.9998 198.941 17.9206 198.332 17.7622C197.723 17.5813 197.181 17.3437 196.707 17.0497C196.256 16.733 195.895 16.371 195.624 15.9638C195.376 15.534 195.252 15.0477 195.252 14.5047V4.46083C195.252 3.96316 195.376 3.49942 195.624 3.06962C195.895 2.61719 196.256 2.24394 196.707 1.94986C197.181 1.63316 197.723 1.39563 198.332 1.23728C198.941 1.07893 199.596 0.999756 200.295 0.999756H212.821C214.355 0.999756 215.597 1.30515 216.544 1.91592C217.515 2.50408 218 3.37501 218 4.5287V14.5726ZM212.347 4.56263H200.905V14.5047H212.347V4.56263Z" fill="#2B2E34"/>
<path d="M11.2964 7.71832H22.0952V4.56263H5C5 3.40894 5.46264 2.5267 6.38793 1.91592C7.33578 1.30515 8.5883 0.999756 10.1455 0.999756H22.7045C23.3816 0.999756 24.0248 1.09024 24.6341 1.27121C25.2434 1.45219 25.7738 1.70102 26.2251 2.01772C26.6991 2.3118 27.0714 2.67374 27.3422 3.10355C27.6131 3.53336 27.7485 4.00841 27.7485 4.5287V14.4708C27.7485 15.0137 27.6131 15.5001 27.3422 15.9299C27.0714 16.3597 26.6991 16.733 26.2251 17.0497C25.7738 17.3437 25.2434 17.5813 24.6341 17.7622C24.0248 17.9206 23.3703 17.9998 22.6707 17.9998H10.1455C9.42331 17.9998 8.74627 17.9319 8.11437 17.7962C7.50504 17.6604 6.96341 17.4568 6.48948 17.1854C6.01556 16.8913 5.64319 16.5294 5.37237 16.0996C5.12412 15.6471 5 15.1155 5 14.5047H22.0952V11.3151H11.2964V7.71832Z" stroke="black" stroke-width="2" mask="url(#path-1-outside-1_1_1124)"/>
<path d="M47.3291 17.9998C46.6295 17.9998 46.0428 17.9432 45.5688 17.8301C45.1175 17.717 44.7113 17.5813 44.3502 17.4229C44.0116 17.2646 43.707 17.0836 43.4362 16.88C43.1653 16.6764 42.8945 16.4841 42.6237 16.3031L35.4471 10.1614V14.7423C35.4471 15.353 35.3004 15.8733 35.007 16.3031C34.7362 16.7103 34.3639 17.0383 33.8899 17.2872C33.416 17.536 32.8631 17.717 32.2312 17.8301C31.6219 17.9432 30.9787 17.9998 30.3016 17.9998H29.7939V0.999756H35.4471V8.49876L42.8268 0.999756H49.0894L41.3712 8.97381L51.6622 17.9998H47.3291Z" stroke="black" stroke-width="2" mask="url(#path-1-outside-1_1_1124)"/>
<path d="M76.4436 14.5726C76.4436 15.1834 76.3082 15.7037 76.0374 16.1335C75.7666 16.5407 75.3942 16.8913 74.9203 17.1854C74.4689 17.4568 73.9273 17.6604 73.2954 17.7962C72.6635 17.9319 71.9864 17.9998 71.2643 17.9998H58.7391C58.0395 17.9998 57.385 17.9206 56.7757 17.7622C56.1663 17.5813 55.6247 17.3437 55.1508 17.0497C54.6994 16.733 54.3383 16.371 54.0675 15.9638C53.8193 15.534 53.6951 15.0477 53.6951 14.5047V4.46083C53.6951 3.96316 53.8193 3.49942 54.0675 3.06962C54.3383 2.61719 54.6994 2.24394 55.1508 1.94986C55.6247 1.63316 56.1663 1.39563 56.7757 1.23728C57.385 1.07893 58.0395 0.999756 58.7391 0.999756H71.2643C72.7989 0.999756 74.0401 1.30515 74.988 1.91592C75.9584 2.50408 76.4436 3.37501 76.4436 4.5287V14.5726ZM70.7903 4.56263H59.3484V14.5047H70.7903V4.56263Z" stroke="black" stroke-width="2" mask="url(#path-1-outside-1_1_1124)"/>
<path d="M95.5842 17.9998V11.3151H84.1422V17.9998H78.489V4.46083C78.489 3.96316 78.6244 3.51073 78.8952 3.10355C79.166 2.67374 79.5271 2.3118 79.9785 2.01772C80.4524 1.70102 80.994 1.45219 81.6034 1.27121C82.2127 1.09024 82.8672 0.999756 83.5668 0.999756H84.1422V7.78618H95.618V0.999756H101.237V17.9998H95.5842Z" stroke="black" stroke-width="2" mask="url(#path-1-outside-1_1_1124)"/>
<path d="M133.768 14.5726C133.768 15.2965 133.576 15.8847 133.192 16.3371C132.831 16.7895 132.369 17.1401 131.804 17.389C131.263 17.6378 130.653 17.8075 129.976 17.898C129.322 17.9658 128.701 17.9998 128.115 17.9998H116.266V17.6604C116.266 16.8687 116.469 16.2579 116.876 15.8281C117.304 15.3757 117.79 15.059 118.331 14.878C118.896 14.6744 119.471 14.5613 120.058 14.5387C120.667 14.5161 121.141 14.5047 121.48 14.5047H128.115V11.3151H116.199C115.86 11.3151 115.398 11.3377 114.811 11.383C114.224 11.4056 113.637 11.3604 113.05 11.2473C112.486 11.1115 112.001 10.8514 111.595 10.4668C111.189 10.0596 110.985 9.43755 110.985 8.60055V1.03369H111.459C111.82 1.03369 112.294 1.05631 112.881 1.10155C113.491 1.1468 114.066 1.2599 114.608 1.44087C115.172 1.62185 115.657 1.91592 116.063 2.32311C116.469 2.7303 116.673 3.31845 116.673 4.08758V7.71832H128.115V0.999756H133.768V14.5726Z" stroke="black" stroke-width="2" mask="url(#path-1-outside-1_1_1124)"/>
<path d="M158.561 7.71832C158.561 8.91725 157.985 9.82211 156.834 10.4329C155.683 11.021 154.138 11.3151 152.197 11.3151H143.734C143.734 10.9532 143.79 10.5573 143.903 10.1275C144.038 9.67507 144.23 9.2792 144.478 8.93988C144.749 8.60055 145.099 8.31779 145.528 8.09157C145.957 7.84274 146.464 7.71832 147.051 7.71832H152.874V4.56263H141.466V14.0297C141.466 15.6132 140.98 16.699 140.01 17.2872C139.514 17.5813 138.949 17.7735 138.317 17.864C137.686 17.9545 137.042 17.9998 136.388 17.9998H135.812V0.999756H153.382C154.916 0.999756 156.157 1.30515 157.105 1.91592C158.076 2.5267 158.561 3.40894 158.561 4.56263V7.71832Z" stroke="black" stroke-width="2" mask="url(#path-1-outside-1_1_1124)"/>
<path d="M160.606 4.56263C160.606 3.40894 161.08 2.5267 162.028 1.91592C162.998 1.30515 164.251 0.999756 165.786 0.999756H188.026C189.561 0.999756 190.802 1.30515 191.75 1.91592C192.72 2.5267 193.206 3.40894 193.206 4.56263V10.3311C193.206 11.53 192.63 12.4349 191.479 13.0457C190.328 13.6338 188.782 13.9279 186.841 13.9279H179.733V14.0297C179.733 15.6132 179.247 16.699 178.277 17.2872C177.78 17.5813 177.216 17.7735 176.584 17.864C175.952 17.9545 175.309 17.9998 174.655 17.9998H174.079V13.9279H166.97C165.03 13.9279 163.484 13.6338 162.333 13.0457C161.182 12.4349 160.606 11.53 160.606 10.3311V4.56263ZM179.733 10.3311H187.518V4.56263H179.733V10.3311ZM166.293 10.3311H174.079V4.56263H166.293V10.3311Z" stroke="black" stroke-width="2" mask="url(#path-1-outside-1_1_1124)"/>
<path d="M218 14.5726C218 15.1834 217.865 15.7037 217.594 16.1335C217.323 16.5407 216.951 16.8913 216.477 17.1854C216.025 17.4568 215.484 17.6604 214.852 17.7962C214.22 17.9319 213.543 17.9998 212.821 17.9998H200.295C199.596 17.9998 198.941 17.9206 198.332 17.7622C197.723 17.5813 197.181 17.3437 196.707 17.0497C196.256 16.733 195.895 16.371 195.624 15.9638C195.376 15.534 195.252 15.0477 195.252 14.5047V4.46083C195.252 3.96316 195.376 3.49942 195.624 3.06962C195.895 2.61719 196.256 2.24394 196.707 1.94986C197.181 1.63316 197.723 1.39563 198.332 1.23728C198.941 1.07893 199.596 0.999756 200.295 0.999756H212.821C214.355 0.999756 215.597 1.30515 216.544 1.91592C217.515 2.50408 218 3.37501 218 4.5287V14.5726ZM212.347 4.56263H200.905V14.5047H212.347V4.56263Z" stroke="black" stroke-width="2" mask="url(#path-1-outside-1_1_1124)"/>
</g>
<defs>
<filter id="filter0_d_1_1124" x="0" y="-0.000244141" width="223" height="27" filterUnits="userSpaceOnUse" color-interpolation-filters="sRGB">
<feFlood flood-opacity="0" result="BackgroundImageFix"/>
<feColorMatrix in="SourceAlpha" type="matrix" values="0 0 0 0 0 0 0 0 0 0 0 0 0 0 0 0 0 0 127 0" result="hardAlpha"/>
<feOffset dy="4"/>
<feGaussianBlur stdDeviation="2"/>
<feComposite in2="hardAlpha" operator="out"/>
<feColorMatrix type="matrix" values="0 0 0 0 0 0 0 0 0 0 0 0 0 0 0 0 0 0 0.25 0"/>
<feBlend mode="normal" in2="BackgroundImageFix" result="effect1_dropShadow_1_1124"/>
<feBlend mode="normal" in="SourceGraphic" in2="effect1_dropShadow_1_1124" result="shape"/>
</filter>
</defs>
</svg>
